<svg width="160" height="48" viewBox="0 0 160 48" fill="none" xmlns="http://www.w3.org/2000/svg">
<rect width="160" height="48" rx="4" fill="#00B06F"/>
<path d="M18.6667 17.0933V30.9067C18.6667 31.96 19.8267 32.6 20.72 32.0267L31.5733 25.12C31.7633 24.9998 31.9199 24.8334 32.0283 24.6364C32.1368 24.4394 32.1936 24.2182 32.1936 23.9933C32.1936 23.7685 32.1368 23.5473 32.0283 23.3503C31.9199 23.1533 31.7633 22.9869 31.5733 22.8667L20.72 15.9733C20.5189 15.8433 20.2864 15.7699 20.0471 15.7609C19.8077 15.752 19.5704 15.8078 19.3601 15.9225C19.1499 16.0372 18.9745 16.2065 18.8524 16.4126C18.7303 16.6186 18.6662 16.8538 18.6667 17.0933V17.0933Z" fill="white"/>
<path d="M63.464 20.2875C63.464 21.1355 63.264 21.9355 62.864 22.6875C62.464 23.4395 61.824 24.0555 60.944 24.5355C60.064 24.9995 58.936 25.2315 57.56 25.2315H54.536V31.9995H51.8V15.3195H57.56C58.84 15.3195 59.92 15.5435 60.8 15.9915C61.696 16.4235 62.36 17.0155 62.792 17.7675C63.24 18.5195 63.464 19.3595 63.464 20.2875ZM57.56 22.9995C58.6 22.9995 59.376 22.7675 59.888 22.3035C60.4 21.8235 60.656 21.1515 60.656 20.2875C60.656 18.4635 59.624 17.5515 57.56 17.5515H54.536V22.9995H57.56ZM68.8094 14.2395V31.9995H66.0734V14.2395H68.8094ZM71.4896 25.3275C71.4896 23.9995 71.7616 22.8235 72.3056 21.7995C72.8656 20.7755 73.6176 19.9835 74.5616 19.4235C75.5216 18.8475 76.5776 18.5595 77.7296 18.5595C78.7696 18.5595 79.6736 18.7675 80.4416 19.1835C81.2256 19.5835 81.8496 20.0875 82.3136 20.6955V18.7755H85.0736V31.9995H82.3136V30.0315C81.8496 30.6555 81.2176 31.1755 80.4176 31.5915C79.6176 32.0075 78.7056 32.2155 77.6816 32.2155C76.5456 32.2155 75.5056 31.9275 74.5616 31.3515C73.6176 30.7595 72.8656 29.9435 72.3056 28.9035C71.7616 27.8475 71.4896 26.6555 71.4896 25.3275ZM82.3136 25.3755C82.3136 24.4635 82.1216 23.6715 81.7376 22.9995C81.3696 22.3275 80.8816 21.8155 80.2736 21.4635C79.6656 21.1115 79.0096 20.9355 78.3056 20.9355C77.6016 20.9355 76.9456 21.1115 76.3376 21.4635C75.7296 21.7995 75.2336 22.3035 74.8496 22.9755C74.4816 23.6315 74.2976 24.4155 74.2976 25.3275C74.2976 26.2395 74.4816 27.0395 74.8496 27.7275C75.2336 28.4155 75.7296 28.9435 76.3376 29.3115C76.9616 29.6635 77.6176 29.8395 78.3056 29.8395C79.0096 29.8395 79.6656 29.6635 80.2736 29.3115C80.8816 28.9595 81.3696 28.4475 81.7376 27.7755C82.1216 27.0875 82.3136 26.2875 82.3136 25.3755ZM100.571 18.7755L92.4592 38.2155H89.6272L92.3152 31.7835L87.1072 18.7755H90.1552L93.8752 28.8555L97.7392 18.7755H100.571Z" fill="white"/>
<rect x="50" y="35.9995" width="108" height="0.001" fill="white"/>
</svg>
